# xmcd
#
# Track frame offsets: 
#        150
#        16928
#        34167
#        53653
#        74688
#        90616
#        112435
#        136416
#        153697
#        175291
#        196952
#        213489
#
# Disc length: 3094 seconds
#
# Revision: 0
# Processed by: cddbd v1.5.2PL0 Copyright (c) Steve Scherf et al.
# Submitted via: ExactAudioCopy v1.3
#
DISCID=b30c140c
DTITLE=Лайма Вайкуле - Первый сезон - восьмидесятые
DYEAR=1900
DGENRE=Pop
TTITLE0=Ещё не вечер
TTITLE1=Чарли
TTITLE2=Самый медленный поезд
TTITLE3=Пугало
TTITLE4=Шаляй-валяй
TTITLE5=Вернисаж
TTITLE6=Деловая женщина
TTITLE7=Шерлок Холмс
TTITLE8=Ночной костёр
TTITLE9=Скрипач на крыше
TTITLE10=Танго летнего сада
TTITLE11=Я за тебя молюсь
EXTD=
EXTT0=
EXTT1=
EXTT2=
EXTT3=
EXTT4=
EXTT5=
EXTT6=
EXTT7=
EXTT8=
EXTT9=
EXTT10=
EXTT11=
PLAYORDER=
